<svg xmlns="http://www.w3.org/2000/svg" width="485.39" height="56.614" viewBox="0 0 485.39 56.614">
  <defs>
    <style>
      .cls-1, .cls-2 {
        fill: #ffffff;
      }

      .cls-2 {
        stroke: #ffffff;
        stroke-miterlimit: 10;
        stroke-width: 0.75px;
      }
    </style>
  </defs>
  <g id="type">
    <g>
      <path class="cls-1" d="M42.5,21.209V11.114a20.8,20.8,0,0,0-.764-6.787A5.458,5.458,0,0,0,36.819.763V0H53.532V.763a5.4,5.4,0,0,0-4.751,3.479,17.782,17.782,0,0,0-.764,6.277v34.19a20.445,20.445,0,0,0,.764,6.7,5.382,5.382,0,0,0,4.751,3.648v.763H36.819v-.763q3.732-.424,4.92-3.309A18.886,18.886,0,0,0,42.5,45.3V41.825a48.305,48.305,0,0,0-.339-7.636q-.426-1.864-4.327-5.09L11.029,6.787V44.709a20.824,20.824,0,0,0,.763,6.787,5.074,5.074,0,0,0,4.751,3.563v.763H0v-.763A5.587,5.587,0,0,0,4.836,51.58,19.869,19.869,0,0,0,5.515,45.3V11.114A22.484,22.484,0,0,0,4.836,4.5,5.567,5.567,0,0,0,0,.763V0H22.312V.763q-1.78.171-1.782,1.019,0,1.1,2.63,3.308Z"/>
      <path class="cls-1" d="M52.484,21.262l11.664-1.936v27.64a17.917,17.917,0,0,0,.576,5.473,3.872,3.872,0,0,0,3.744,2.735v.648H52.484v-.648a4,4,0,0,0,3.744-2.808,17.6,17.6,0,0,0,.576-5.4V30.118a17.284,17.284,0,0,0-.576-5.328,4.134,4.134,0,0,0-3.744-2.88Z"/>
      <path class="cls-1" d="M102.563,31.99l-27.5,7.632a15.958,15.958,0,0,0,5.113,9.54,14.083,14.083,0,0,0,9.863,3.925,12.991,12.991,0,0,0,8.712-3.529,17.049,17.049,0,0,0,3.816-5.471l.649.29L99.468,56.326a3.314,3.314,0,0,0-2.376-.575,42.079,42.079,0,0,0-4.969.431,42.266,42.266,0,0,1-5.04.432A21.811,21.811,0,0,1,74.7,52.51a16.454,16.454,0,0,1-7.849-14.4,17.593,17.593,0,0,1,5.473-13.249,18.692,18.692,0,0,1,13.463-5.255,17.7,17.7,0,0,1,10.621,3.347A15.792,15.792,0,0,1,102.563,31.99ZM74.627,36.6l19.512-5.544q-2.736-7.992-9-7.991a9.16,9.16,0,0,0-8.064,4.319A15.258,15.258,0,0,0,74.627,36.6Z"/>
      <path class="cls-1" d="M108.069,45.218v-34.1A22.484,22.484,0,0,0,107.39,4.5,5.567,5.567,0,0,0,102.554.763V0h32.832q6.7,0,9.586,2.121,2.629,2.036,2.63,6.532,0,7.467-12.216,14,8.736,9.756,14.846,25.281a24.3,24.3,0,0,0,2.036,4.411,6.245,6.245,0,0,0,3.9,2.715v.763H138.355v-.763q3.054-.592,3.054-3.309a18.09,18.09,0,0,0-1.612-6.193,30.922,30.922,0,0,0-2.969-5.684q-2.97-4.41-9.586-13.744L117.4,29.523V44.709q0,5.007.763,6.871a5.391,5.391,0,0,0,4.751,3.479v.763H102.554v-.763a5.781,5.781,0,0,0,4.836-3.479A20.74,20.74,0,0,0,108.069,45.218ZM117.4,11.029V25.536a56.973,56.973,0,0,0,12.725-5.175q8.227-4.581,8.229-9.756,0-4.157-3.224-5.685A17.647,17.647,0,0,0,128.175,3.9q-8.231,0-9.757,1.867Q117.4,7.043,117.4,11.029Z"/>
      <path class="cls-1" d="M164.162,35.231a4.23,4.23,0,0,1-3.348-1.549,5.373,5.373,0,0,1,.073-7.164,4.568,4.568,0,0,1,3.491-1.511,4.091,4.091,0,0,1,3.24,1.511,5.162,5.162,0,0,1,1.3,3.456,5.494,5.494,0,0,1-1.368,3.637A4.259,4.259,0,0,1,164.162,35.231Zm0,21.312a4.233,4.233,0,0,1-3.348-1.549,5.373,5.373,0,0,1,.073-7.164,4.568,4.568,0,0,1,3.491-1.511,4.091,4.091,0,0,1,3.24,1.511,5.162,5.162,0,0,1,1.3,3.456,5.494,5.494,0,0,1-1.368,3.637A4.259,4.259,0,0,1,164.162,56.543Z"/>
      <path class="cls-1" d="M187.6,40.106l-2.2,6.068a15.888,15.888,0,0,0-1.15,5.112,3.475,3.475,0,0,0,1.15,2.7,4.646,4.646,0,0,0,2.809,1.188v.648H173.522v-.648a5.628,5.628,0,0,0,3.744-2.3,32.332,32.332,0,0,0,3.241-6.7l11.591-30.6a13.832,13.832,0,0,0,1.081-4.175c0-1.3-.747-2.064-2.233-2.3V8.446H206.93v.648a2.505,2.505,0,0,0-2.087,2.592,9.556,9.556,0,0,0,.646,2.808L217.8,49.919a16.756,16.756,0,0,0,1.439,3.383,5.1,5.1,0,0,0,2.953,1.872v.648H205.85v-.648q3.528-.791,3.528-5.04c0-3.551-4.717-15.707-4.717-15.707Zm15.427-9.774L197.21,13.846l-7.993,21.132Z"/>
      <path class="cls-1" d="M257.93,55.822H247.562a24.789,24.789,0,0,1-1.439-7.344q-8.856,8.065-15.408,8.065-8.64,0-8.641-10.728v-15.7a17.655,17.655,0,0,0-.575-5.4,4,4,0,0,0-3.744-2.808v-.648l11.664-.936V42q0,5.113,1.008,7.129a4.285,4.285,0,0,0,4.248,2.376,9.847,9.847,0,0,0,5.112-1.513,12.6,12.6,0,0,0,4.031-3.744q2.3-3.383,2.3-10.872V30.118a18.322,18.322,0,0,0-.576-5.544A3.875,3.875,0,0,0,241.8,21.91v-.648l11.664-.936V47.111a17.988,17.988,0,0,0,.576,5.4,3.71,3.71,0,0,0,3.887,2.664Z"/>
      <path class="cls-1" d="M261.186,46.03V24.07h-4.752v-.647c1.919-.48,3.064-1.833,4.464-3.241a27.785,27.785,0,0,0,4.645-6.476c1.231-2.659,1.568-3.769,1.5-5.44l1.492-.4v12.1h5.759q3.241,0,4.609-1.223l-2.017,6.111q-.718-.79-3.1-.792H268.53V45.094q0,3.818.935,5.4,1.152,1.874,4.177,1.872a8.518,8.518,0,0,0,6.84-3.312l.431.217-1.448,4.9c-2.784.912-6.784,2.369-10,2.369s-5.448-1.009-6.695-3.025Q261.185,51.072,261.186,46.03Z"/>
      <path class="cls-1" d="M300.288,56.543q-8.423,0-13.752-4.9-5.544-5.04-5.544-13.321a17.416,17.416,0,0,1,5.833-13.679q5.542-5.04,14.184-5.04,8.495,0,13.823,4.679,5.546,4.968,5.544,13.321,0,8.639-5.832,13.9Q309,56.543,300.288,56.543Zm.288-33.48q-5.76,0-8.711,4.175Q289.2,30.91,289.2,36.886a20.7,20.7,0,0,0,2.665,10.8,9.978,9.978,0,0,0,9.072,5.4,9.723,9.723,0,0,0,8.28-4.465,16.689,16.689,0,0,0,2.951-10.008,19.693,19.693,0,0,0-2.592-10.44A10.018,10.018,0,0,0,300.576,23.063Z"/>
      <path class="cls-1" d="M324.72,46.966V30.118a17.323,17.323,0,0,0-.575-5.328,4.134,4.134,0,0,0-3.744-2.88v-.648l9.792-.936a17.994,17.994,0,0,1,1.872,7.7q8.277-8.424,15.479-8.423,7.488,0,8.424,8.064,8.856-8.064,15.553-8.064,8.207,0,8.208,11.232V46.966a17.925,17.925,0,0,0,.575,5.473,3.966,3.966,0,0,0,3.889,2.735v.648h-15.84v-.648a4.049,4.049,0,0,0,3.527-2.952,18.8,18.8,0,0,0,.5-5.256V33.79a16.577,16.577,0,0,0-.863-6.263,4.784,4.784,0,0,0-4.753-2.737,8.8,8.8,0,0,0-4.752,1.512,13.093,13.093,0,0,0-3.816,3.6q-2.305,3.455-2.3,11.231v5.832a17.925,17.925,0,0,0,.575,5.473,4.1,4.1,0,0,0,3.96,2.735v.648H344.449v-.648a3.916,3.916,0,0,0,3.6-2.808,19.988,19.988,0,0,0,.5-5.4V33.79a16.926,16.926,0,0,0-.863-6.263,4.668,4.668,0,0,0-4.609-2.737q-4.176,0-7.776,3.888-3.238,3.457-3.239,10.152v8.136a17.573,17.573,0,0,0,.575,5.4,3.867,3.867,0,0,0,3.673,2.808v.648H320.4v-.648a4,4,0,0,0,3.744-2.808A17.637,17.637,0,0,0,324.72,46.966Z"/>
      <path class="cls-1" d="M423.088,55.822h-9.864a10.673,10.673,0,0,1-2.448-6.48,13.278,13.278,0,0,1-6.12,5.544,19.744,19.744,0,0,1-8.207,1.657,13.778,13.778,0,0,1-8.208-2.268,7.178,7.178,0,0,1-3.169-6.157q0-7.271,9.432-11.447,3.384-1.514,15.7-4.465V30.839q0-3.96-1.62-5.581t-5.652-1.62q-10.946,0-15.336,9.792l1.152-11.808a3.512,3.512,0,0,0,2.16.936,7.821,7.821,0,0,0,2.448-.575,37.854,37.854,0,0,1,12.456-2.376q6.839,0,9.5,2.664t2.664,9.431V45.238a20.888,20.888,0,0,0,.648,6.192,5.472,5.472,0,0,0,4.464,3.744ZM410.2,38.111V35.158q-16.921,3.673-16.92,12.024a4.839,4.839,0,0,0,1.692,3.888,6.163,6.163,0,0,0,4.14,1.44q6.192,0,9-4.967A18.942,18.942,0,0,0,410.2,38.111Z"/>
      <path class="cls-1" d="M485.39,55.822h-9.864a10.674,10.674,0,0,1-2.449-6.48,13.268,13.268,0,0,1-6.12,5.544,19.738,19.738,0,0,1-8.207,1.657,13.782,13.782,0,0,1-8.208-2.268,7.181,7.181,0,0,1-3.169-6.157q0-7.271,9.433-11.447,3.384-1.514,15.7-4.465V30.839q0-3.96-1.62-5.581t-5.652-1.62q-10.946,0-15.336,9.792l1.152-11.808a3.509,3.509,0,0,0,2.159.936,7.82,7.82,0,0,0,2.449-.575,37.849,37.849,0,0,1,12.456-2.376q6.838,0,9.5,2.664t2.664,9.431V45.238a20.854,20.854,0,0,0,.648,6.192,5.472,5.472,0,0,0,4.464,3.744ZM472.5,38.111V35.158q-16.921,3.673-16.921,12.024a4.84,4.84,0,0,0,1.693,3.888,6.162,6.162,0,0,0,4.139,1.44q6.192,0,9-4.967A18.931,18.931,0,0,0,472.5,38.111Z"/>
    </g>
    <ellipse class="cls-1" cx="300.893" cy="38.404" rx="3.234" ry="5.473"/>
    <path class="cls-1" d="M426.186,46.03V24.07h-4.752v-.647c1.919-.48,3.064-1.833,4.464-3.241a27.785,27.785,0,0,0,4.645-6.476c1.231-2.659,1.568-3.769,1.5-5.44l1.492-.4v12.1h5.759q3.241,0,4.609-1.223l-2.017,6.111q-.718-.79-3.1-.792H433.53V45.094q0,3.818.935,5.4,1.152,1.874,4.177,1.872a8.518,8.518,0,0,0,6.84-3.312l.431.217-1.448,4.9c-2.784.912-6.784,2.369-10,2.369s-5.448-1.009-6.695-3.025Q426.185,51.072,426.186,46.03Z"/>
  </g>
  <g id="gear">
    <animateTransform attributeName="transform" attributeType="XML" type="rotate" from="0 58.541 11.502" to="360 58.541 11.502" dur="15s" repeatCount="indefinite"/>
    <g>
      <path class="cls-2" d="M58.676,4.405a7.1,7.1,0,1,0,6.962,6.962A7.1,7.1,0,0,0,58.676,4.405Zm5.782,7.1a5.906,5.906,0,0,1-.156,1.352.953.953,0,0,1-1.405.6l-2.4-1.387a2.035,2.035,0,0,0-1.507-2.55V6.744a.955.955,0,0,1,1.221-.918A5.918,5.918,0,0,1,64.458,11.5ZM58.4,10.385a1.127,1.127,0,1,1-.971.971A1.128,1.128,0,0,1,58.4,10.385Zm-.228-3.664V9.5a2.035,2.035,0,0,0-1.488,2.821l-2.422,1.4a.954.954,0,0,1-1.393-.551A5.92,5.92,0,0,1,56.957,5.8.954.954,0,0,1,58.167,6.721Zm.374,10.7a5.891,5.891,0,0,1-3.937-1.5.955.955,0,0,1,.159-1.539L57.159,13a2.035,2.035,0,0,0,2.954-.2l2.408,1.391a.954.954,0,0,1,.2,1.5A5.9,5.9,0,0,1,58.541,17.419Z"/>
      <g>
        <polygon class="cls-1" points="59.363 4.51 57.719 4.51 57.878 3.256 59.205 3.256 59.363 4.51"/>
        <polygon class="cls-1" points="59.363 18.494 57.719 18.494 57.878 19.748 59.205 19.748 59.363 18.494"/>
      </g>
      <g>
        <polygon class="cls-1" points="56.625 4.728 55.106 5.357 54.773 4.138 55.999 3.63 56.625 4.728"/>
        <polygon class="cls-1" points="61.977 17.647 60.457 18.277 61.084 19.374 62.31 18.867 61.977 17.647"/>
      </g>
      <g>
        <polygon class="cls-1" points="54.178 5.977 53.016 7.139 52.241 6.141 53.18 5.202 54.178 5.977"/>
        <polygon class="cls-1" points="64.067 15.865 62.904 17.028 63.903 17.802 64.841 16.864 64.067 15.865"/>
      </g>
      <g>
        <polygon class="cls-1" points="52.396 8.067 51.767 9.586 50.669 8.96 51.177 7.734 52.396 8.067"/>
        <polygon class="cls-1" points="65.316 13.418 64.686 14.938 65.906 15.271 66.413 14.045 65.316 13.418"/>
      </g>
      <g>
        <polygon class="cls-1" points="51.549 10.68 51.549 12.324 50.295 12.166 50.295 10.839 51.549 10.68"/>
        <polygon class="cls-1" points="65.533 10.68 65.533 12.324 66.787 12.166 66.787 10.839 65.533 10.68"/>
      </g>
      <g>
        <polygon class="cls-1" points="51.767 13.418 52.396 14.938 51.177 15.271 50.669 14.045 51.767 13.418"/>
        <polygon class="cls-1" points="64.686 8.067 65.316 9.586 66.413 8.96 65.906 7.734 64.686 8.067"/>
      </g>
      <g>
        <polygon class="cls-1" points="53.016 15.865 54.178 17.028 53.18 17.802 52.241 16.864 53.016 15.865"/>
        <polygon class="cls-1" points="62.904 5.977 64.067 7.139 64.841 6.141 63.903 5.202 62.904 5.977"/>
      </g>
      <g>
        <polygon class="cls-1" points="55.106 17.647 56.625 18.277 55.999 19.374 54.773 18.867 55.106 17.647"/>
        <polygon class="cls-1" points="60.457 4.728 61.977 5.357 62.31 4.138 61.084 3.63 60.457 4.728"/>
      </g>
    </g>
  </g>
</svg>