<?xml version="1.0" encoding="utf-8"?>
<!-- Generator: Adobe Illustrator 25.2.1, SVG Export Plug-In . SVG Version: 6.00 Build 0)  -->
<svg version="1.1" xmlns="http://www.w3.org/2000/svg" xmlns:xlink="http://www.w3.org/1999/xlink" x="0px" y="0px"
	 viewBox="0 0 484.29 197.44" style="enable-background:new 0 0 484.29 197.44;" xml:space="preserve">
<style type="text/css">
@font-face {
    font-family: 'Minimo';
    src: url("../fonts/Minimo.otf") format("opentype");
    font-weight: normal;
    font-style: normal;
}
	.st0{fill:none;}
	.st1{fill:#FFFFFF;}
	.st2{font-family:"Minimo";}
	.st3{font-size:119px;}
	.st4{font-size:31px;}
	.st5{font-size:32px;}
</style>
<g id="Слой_1">
	<rect x="86.86" class="st0" width="397.44" height="197.44"/>
	<text transform="matrix(1 0 0 1 100.3525 121.1679)"><tspan x="0" y="0" class="st1 st2 st3">YoRHa</tspan><tspan x="370.44" y="0" class="st1 st2 st4">  </tspan><tspan x="12.1" y="38.4" class="st1 st2 st5">For the Glory of Mankind</tspan></text>
	<g>
		<path class="st1" d="M23.17,147.62c4.53-5.16,9.05-10.33,13.6-15.47c0.48-0.55,0.61-1,0.29-1.67c-0.4-0.83-0.72-1.71-1.01-2.59
			c-0.13-0.39-0.16-0.85-0.09-1.26c0.53-3.1,0.35-6.1-1.28-8.88c-0.47-0.79-1.07-1.51-1.64-2.23c-1.2-1.52-2.42-3.03-3.13-4.86
			c-0.26-0.68-0.47-1.39-0.66-2.1c-0.4-1.53-0.01-2.91,0.79-4.22c0.29-0.47,0.67-0.65,1.22-0.64c1.06,0.02,1.96,0.4,2.73,1.1
			c0.39,0.35,0.58,0.74,0.46,1.3c-0.27,1.29-0.02,2.5,0.69,3.6c0.27,0.43,0.32,0.79,0.11,1.28c-0.79,1.88-0.55,3.63,0.84,5.17
			c1.28,1.42,2.93,1.67,4.7,1.42c0.72-0.1,1.3-0.53,1.82-1.03c0.6-0.57,0.65-0.55,1.33-0.2c0.51,0.26,1.04,0.48,1.55,0.71
			c0.19,0.09,0.38,0.18,0.57,0.27c0,0,0,0,0,0c-0.13,0.67-0.29,1.27-0.37,1.89c-0.14,1.08,0.1,1.49,1.11,1.9
			c0.47,0.19,0.98,0.31,1.48,0.42c0.89,0.2,1.2,0.49,1.32,1.41c0.21,1.76,0.83,3.39,1.64,4.94c0.31,0.59,0.75,1.15,1.24,1.6
			c0.41,0.38,0.52,0.77,0.52,1.29c-0.02,4.34-0.02,8.68-0.03,13.03c-0.01,4.83-0.01,9.67-0.01,14.5c0,0.15,0.03,0.37,0.04,0.72
			c0,0,0,0,0,0c0.03-0.06,0.17-0.52,0.19-0.55l0,0c1.24-5.98,2.5-11.98,3.73-17.96c0.39-1.9,0.78-3.79,1.19-5.69
			c0.12-0.56,0.01-0.97-0.43-1.37c-1.24-1.15-2.44-2.34-3.65-3.52c-0.11-0.11-0.2-0.25-0.3-0.39c0,0,0,0,0,0
			c0.04-0.12,0.05-0.23,0.12-0.31c1.44-1.85,2.2-3.99,2.54-6.29c0.14-0.94,0.44-1.21,1.4-1.43c0.58-0.13,1.14-0.33,1.7-0.55
			c0.61-0.23,0.88-0.72,0.83-1.36c-0.04-0.49-0.13-0.97-0.21-1.45c-0.05-0.26-0.13-0.52-0.21-0.84c0,0,0,0,0,0
			c0.86-0.4,1.69-0.79,2.52-1.17c0.35-0.16,0.6,0.01,0.86,0.27c1.51,1.56,3.31,1.52,5.13,0.79c1.96-0.79,3.55-3.27,2.39-6.1
			c-0.26-0.63-0.19-1.06,0.14-1.58c0.64-1.01,0.86-2.13,0.62-3.3c-0.15-0.73,0.11-1.2,0.65-1.62c0.8-0.64,1.69-0.95,2.72-0.92
			c0.43,0.01,0.73,0.17,0.95,0.52c0.8,1.26,1.25,2.59,0.94,4.11c-0.32,1.57-0.87,3.05-1.78,4.36c-0.92,1.31-1.96,2.55-2.9,3.85
			c-2,2.76-2.84,5.8-2.05,9.19c0.13,0.57,0.38,1.15,0.69,1.65c4.32,6.97,8.66,13.94,12.99,20.9c0.05,0.09,0.19,0.26,0.34,0.47
			c0,0,0.01,0,0,0l-0.16-0.61c0,0,0,0,0,0c-2.24-6.72-4.45-13.46-6.67-20.19c-0.22-0.67-0.56-1.04-1.26-1.2
			c-1.27-0.3-2.51-0.71-3.77-1.05c-0.62-0.17-0.85-0.55-0.94-1.17c-0.32-2.1,0.07-4.04,1.24-5.78c1.02-1.51,2.12-2.97,3.24-4.41
			c1.81-2.31,2.71-4.9,2.54-7.83c-0.1-1.7-0.59-3.24-2.12-4.21c0,0,0,0,0,0c-0.16-0.13-0.2-0.16-0.38-0.3c0,0,0,0,0,0
			c1.06-1.19,2.24-2.11,3.86-2.19c0.78-0.04,1.57,0.1,2.34,0.22c0.65,0.1,1.05,0.54,1.2,1.19c0.3,1.27,0.35,2.5-0.07,3.78
			c-0.45,1.37-0.75,2.79-1.08,4.19c-0.58,2.51,0.4,4.42,2.32,5.95c0.34,0.27,0.72,0.5,1.1,0.7c5.3,2.82,10.61,5.64,15.92,8.45
			c0,0,0,0,0,0c0.01,0,0.32,0.13,0.38,0.16c0,0,0,0,0,0c-0.2-0.23-0.61-0.74-0.82-0.94c-2.52-2.25-5.04-4.5-7.56-6.74
			c-1.54-1.38-3.1-2.74-4.62-4.14c-0.5-0.46-0.98-0.61-1.62-0.39c-0.67,0.23-1.35,0.4-2.03,0.6c-0.64,0.18-0.73,0.14-1.03-0.43
			c-0.67-1.28-0.61-2.63-0.35-4c0.02-0.11,0.05-0.21,0.08-0.32c0.47-1.69,1.34-3.27,1.31-5.11c0,0,0,0,0,0
			c0.75,1,1.02,2.09,0.79,3.27c-0.12,0.64-0.33,1.27-0.51,1.89c-0.3,1.03-0.48,2.07-0.37,3.23c0,0,0,0,0,0
			c1.07,0.23,2-0.21,3.02-0.61c0,0,0,0,0,0c5.93,5.39,11.9,10.82,17.87,16.24c-0.01,0.02-0.01,0.01-0.02,0.03
			c-7.66-2.44-15.32-4.88-22.98-7.32c0,0,0,0,0,0c-0.07-0.48-0.15-0.91-0.19-1.34c-0.04-0.42-0.28-0.58-0.66-0.55
			c-0.41,0.03-0.81,0.07-1.21,0.14c-3.07,0.56-5.34,2.2-6.7,5.04c-0.48,1-0.4,1.41,0.63,1.91c0.82,0.4,1.72,0.62,2.71,0.97
			c0,0,0,0,0,0c2.84,8.85,5.74,17.85,8.63,26.84c0,0,0,0,0,0c-6.17-7.05-12.35-14.11-18.44-21.07c0,0,0,0,0,0
			c0.22-1.01,0.47-1.93,0.62-2.86c0.15-0.99-0.06-1.28-1.02-1.54c-3.44-0.93-6.68-0.72-9.53,1.69c-0.17,0.14-0.34,0.27-0.49,0.43
			c-0.94,0.94-1.18,1.06-0.16,2.47c0.25,0.35,0.59,0.64,0.91,0.93c0.32,0.29,0.66,0.56,1.03,0.87c0,0,0,0,0,0
			c-2.03,9.87-4.06,19.74-6.09,29.57c0,0,0,0-0.01,0c-2.02-9.8-4.05-19.65-6.09-29.58c0,0,0,0,0,0c0.27-0.22,0.59-0.43,0.84-0.7
			c0.55-0.6,1.07-1.22,1.58-1.85c0.32-0.4,0.24-0.81-0.11-1.18c-1.53-1.6-3.32-2.75-5.53-3.07c-1.66-0.24-3.31-0.06-4.93,0.37
			c-1.04,0.28-1.26,0.57-1.1,1.64c0.13,0.88,0.38,1.74,0.62,2.79c0,0,0,0,0,0c-6.06,6.93-12.25,14-18.44,21.07c0,0-0.01,0,0,0
			c2.89-8.99,5.77-17.97,8.64-26.92c0,0,0,0,0,0c0.72-0.2,1.4-0.38,2.08-0.58c0.16-0.04,0.3-0.12,0.45-0.2
			c1.18-0.61,1.31-1.01,0.7-2.21c-1.58-3.1-4.19-4.62-7.55-4.99c-0.73-0.08-0.84,0.03-0.97,0.75c-0.06,0.35-0.09,0.7-0.14,1.12
			c0,0,0,0,0,0c-7.67,2.45-15.35,4.91-23.05,7.34c0,0,0,0,0,0c5.97-5.42,11.94-10.85,17.86-16.22c0,0,0,0,0,0
			c0.77,0.21,1.46,0.44,2.17,0.6c0.83,0.18,1.01,0.04,0.94-0.79c-0.08-0.81-0.23-1.62-0.39-2.41c-0.12-0.59-0.34-1.15-0.47-1.74
			c-0.29-1.26-0.03-2.42,0.66-3.58c0,0,0,0,0.01,0c0.02,0.17,0.02,0.31,0.02,0.4c0.03,1.38,0.6,2.55,1.07,3.81
			c0.64,1.73,0.75,3.52,0.48,5.32c-0.15,1.01-0.66,1.77-1.6,2.32c-5.36,3.18-10.66,6.44-15.99,9.65c-0.04,0.03,0,0-0.23,0.16
			c0,0-0.1,0.07-0.1,0.07c0.34-0.07,0.49-0.13,0.88-0.22c5.27-1.7,10.54-3.41,15.81-5.12c0.85-0.27,0.88-0.34,0.82-1.23
			c-0.02-0.33-0.11-0.66-0.07-0.98c0.06-0.41,0.11-0.92,0.37-1.2c1.93-2.1,2.18-4.56,1.61-7.19c-0.28-1.28-0.61-2.55-1.02-3.79
			c-0.42-1.25-0.33-2.46-0.03-3.7c0.15-0.62,0.53-1,1.13-1.16c2.36-0.64,4.41-0.13,6.07,1.73c0.07,0.08,0.14,0.16,0.2,0.28
			c0,0,0,0,0,0c-0.19,0.16-0.19,0.16-0.29,0.23c-1.47,0.89-2.06,2.41-2.19,4.01c-0.24,2.95,0.61,5.6,2.43,7.94
			c0.99,1.27,1.98,2.53,2.91,3.85c0.87,1.23,1.59,2.57,1.69,4.11c0.13,2.01-0.05,3.94-1.08,5.77c-3.61,6.38-7.14,12.81-10.7,19.21
			c-0.15,0.27-0.28,0.55-0.42,0.83c0,0-0.3,0.55-0.3,0.55"/>
		<path class="st1" d="M57.01,86.34h0.97c0.6-4.38,0.87-8.85,2.27-13.29c1.03,3.61,1.59,7.14,1.95,10.73
			c-0.45,0.26-0.85,0.49-1.24,0.73c-1.03,0.63-1.67,1.55-1.9,2.74c-0.31,1.58-0.19,3.14,0.29,4.79c0.35-0.12,0.65-0.21,0.94-0.31
			c0.51-0.18,1.01-0.41,1.53-0.52c0.7-0.14,0.96,0.12,0.87,0.84c-0.13,1.08-0.7,1.94-1.46,2.67c-0.98,0.94-1.02,0.92-2.05-0.01
			c-0.66-0.59-1.19-1.27-1.49-2.11c-0.06-0.17-0.05-0.39-0.38-0.41c-0.33-0.01-0.38,0.24-0.38,0.5c-0.02,1.04-0.07,2.08-0.03,3.11
			c0.02,0.64-0.2,0.98-0.81,1.22c-1.24,0.49-2.09,1.43-2.7,2.61c-0.09,0.18-0.21,0.35-0.35,0.58c-0.34-0.54-0.61-1-0.92-1.45
			c-0.58-0.83-1.34-1.41-2.32-1.71c-0.66-0.2-0.77-0.35-0.77-1.05c0-1.06,0.03-2.13,0.04-3.19c0-0.27,0.05-0.58-0.34-0.63
			c-0.37-0.05-0.41,0.22-0.5,0.5c-0.38,1.14-1.22,1.92-2.15,2.6c-0.14,0.11-0.5,0.1-0.65,0c-0.97-0.68-1.69-1.57-2.07-2.73
			c-0.01-0.04-0.02-0.07-0.03-0.11c-0.25-1.11,0.06-1.44,1.15-1.18c0.42,0.1,0.81,0.31,1.21,0.47c0.27,0.1,0.54,0.2,0.93,0.34
			c0.12-0.54,0.28-0.98,0.3-1.42c0.05-1.03,0.13-2.07,0.02-3.09c-0.15-1.52-1.02-2.61-2.37-3.31c-0.24-0.12-0.48-0.25-0.8-0.42
			c0.32-3.57,0.92-7.11,1.93-10.78c1.41,4.43,1.69,8.87,2.28,13.3h1.18c0-0.32,0-0.61,0-0.9c0.06-4.78,0.06-9.56,0.2-14.33
			c0.21-7.04,1.3-13.96,3.43-20.68c0.04-0.13,0.1-0.25,0.2-0.51c0.12,0.32,0.22,0.53,0.28,0.74c1.22,4.03,1.98,8.16,2.61,12.32
			c1.11,7.37,1.22,14.79,1.12,22.22C57.01,85.55,57.01,85.93,57.01,86.34z M55.61,96.04c0.43-0.34,0.6-0.69,0.59-1.23
			c-0.04-4.58-0.04-9.17-0.08-13.75c-0.02-2.43-0.02-4.86-0.13-7.28c-0.23-4.94-0.8-9.84-1.59-14.72c-0.34-2.11-0.71-4.21-1.42-6.23
			c0,1.08,0,2.16,0,3.24c0.03,13.78,0.04,28.18,0.07,41.96"/>
		<path class="st1" d="M37.51,36.21c0.3,0.93,0.56,1.66,0.77,2.4c1.17,4.05,1.89,8.18,2.4,12.35c0.45,3.68,0.87,7.37,1.11,11.07
			c0.3,4.6,0.39,9.22,0.57,13.83c0.08,1.96,0.16,3.93,0.23,5.89c0.03,0.75,0.04,1.04-0.89,1.24c-1.6,0.34-2.88,1.24-3.75,2.67
			c-0.08,0.13-0.2,0.24-0.35,0.43c-0.18-0.24-0.32-0.42-0.45-0.61c-0.89-1.27-2.03-2.18-3.57-2.53c-0.85-0.19-0.96-0.35-0.93-1.24
			c0.11-3.63,0.2-7.26,0.34-10.89c0.16-4.25,0.29-8.51,0.57-12.76c0.48-7.23,1.73-14.35,3.73-21.32
			C37.32,36.63,37.38,36.52,37.51,36.21z M37.66,84.19c0.29-0.19,0.43-0.27,0.55-0.37c0.94-0.75,1.85-1.52,2.81-2.23
			c0.42-0.31,0.57-0.64,0.54-1.17c-0.15-3.05-0.27-6.11-0.39-9.16c-0.12-3.05-0.2-6.11-0.36-9.16c-0.23-4.66-0.74-9.3-1.44-13.91
			c-0.35-2.34-0.84-4.67-1.28-6.99c-0.09-0.5-0.33-0.97-0.43-1.47L37.66,84.19z"/>
		<path class="st1" d="M68.38,86.26c-0.45-0.55-0.82-1.05-1.24-1.51c-0.75-0.84-1.7-1.33-2.79-1.59c-0.86-0.21-0.98-0.35-0.95-1.23
			c0.13-4.09,0.25-8.19,0.4-12.28c0.11-3.16,0.22-6.33,0.39-9.49c0.42-7.88,1.68-15.62,3.86-23.2c0.04-0.12,0.08-0.24,0.19-0.57
			c0.16,0.44,0.27,0.7,0.35,0.97c1.07,3.25,1.72,6.59,2.29,9.96c1.23,7.34,1.8,14.73,1.99,22.16c0.1,4.09,0.31,8.18,0.47,12.28
			c0.01,0.19,0,0.38,0.01,0.57c0.03,0.45-0.15,0.69-0.63,0.78c-1.23,0.23-2.31,0.8-3.19,1.7C69.14,85.24,68.8,85.73,68.38,86.26z
			 M68.56,84.35c1.26-1.01,2.45-1.95,3.61-2.92c0.14-0.12,0.17-0.44,0.16-0.67c-0.03-0.9-0.1-1.8-0.13-2.7
			c-0.18-4.72-0.35-9.43-0.54-14.15c-0.21-5.1-0.72-10.18-1.48-15.22c-0.39-2.58-0.95-5.14-1.44-7.71
			c-0.05-0.28-0.16-0.54-0.24-0.82C68.22,41.54,68.32,83.65,68.56,84.35z"/>
		<path class="st1" d="M63.63,108.78c-1.51,0.7-2.99,1.4-4.47,2.08c-0.82,0.38-0.99,0.3-1.34-0.55c-0.1-0.23-0.18-0.46-0.24-0.7
			c-0.07-0.29-0.12-0.58-0.2-0.96c0.39-0.15,0.76-0.31,1.12-0.44c1.76-0.5,3.3-1.4,4.68-2.58c2.35-2.01,4.28-4.34,5.3-7.33
			c0.13-0.39,0.25-0.78,0.33-1.18c0.07-0.35,0-0.66-0.41-0.77c-0.4-0.11-0.76-0.08-0.98,0.34c-0.11,0.22-0.21,0.45-0.28,0.68
			c-1.33,4.28-4.47,7.07-8.2,8.97c-0.45,0.2-0.95,0.35-1.55,0.56c-0.08-0.91,0.07-1.68,0.29-2.42c0.06-0.2,0.4-0.33,0.62-0.47
			c1.07-0.7,2.21-1.31,3.19-2.11c2.14-1.75,3.36-4.05,3.52-6.84c0.03-0.54,0.21-0.87,0.75-1c0.41-0.1,0.81-0.26,1.21-0.39
			c-0.81-3.12-3.25-4.51-6.76-3.89c-0.41-0.75-0.24-1.52,0-2.27c0.57-1.78,2.43-2.98,4.16-2.72c1.89,0.28,3.19,1.81,3.23,3.83
			c0,0.19-0.01,0.38,0.01,0.57c0.04,0.61,0.27,0.88,0.74,0.87c0.5-0.01,0.73-0.28,0.77-0.85c0.03-0.43,0.03-0.88,0.11-1.3
			c0.37-2.07,2.32-3.44,4.33-3.02c2.05,0.43,3.65,2.68,3.06,4.75c-1.61-0.19-3.23-0.25-4.58,0.95c-1,0.89-1.69,1.98-2.09,3.34
			c0.46,0.36,0.92,0.74,1.4,1.07c0.52,0.36,0.68,0.82,0.53,1.42c-0.64,2.56-1.52,5.02-3.14,7.14c-0.95,1.25-2.01,2.41-2.96,3.54
			c0.53,0.59,1.09,1.21,1.66,1.83c0.8,0.87,1.47,1.82,1.91,2.93c0.48,1.23,0.05,2.85-0.94,3.65c-1.03,0.83-2.53,0.89-3.66,0.15
			c-0.65-0.43-0.68-0.54-0.36-1.26c0.13-0.3,0.25-0.6,0.35-0.92C65.33,111.49,65.08,110.43,63.63,108.78z"/>
		<path class="st1" d="M48.64,108.73c-0.2,0.62-0.36,1.25-0.61,1.84c-0.24,0.57-0.44,0.63-1.02,0.37c-1.44-0.65-2.86-1.32-4.29-1.98
			c-0.12-0.06-0.24-0.11-0.36-0.17c-2.03,1.95-1.52,4.08-0.52,6.21c-0.68,0.96-1.89,1.4-3.04,1.12c-1.29-0.32-2.05-1.18-2.29-2.48
			c-0.13-0.71-0.07-1.4,0.24-2.08c0.65-1.42,1.65-2.55,2.76-3.61c0.27-0.26,0.55-0.51,0.79-0.73c-1-1.18-2.01-2.28-2.93-3.45
			c-1.7-2.16-2.61-4.7-3.28-7.33c-0.15-0.6,0.01-1.06,0.53-1.41c0.47-0.32,0.91-0.68,1.42-1.07c-0.46-1.44-1.19-2.68-2.41-3.59
			c-1.28-0.95-2.73-0.92-4.25-0.68c-0.32-0.71-0.16-1.38,0.03-2.01c0.56-1.86,2.4-3.04,4.27-2.79c1.77,0.24,3.09,1.84,3.15,3.82
			c0.01,0.19-0.01,0.38,0,0.57c0.04,0.51,0.3,0.78,0.75,0.8c0.46,0.03,0.72-0.21,0.77-0.75c0.03-0.32,0.01-0.65,0.04-0.98
			c0.17-2.02,1.64-3.5,3.57-3.58c1.74-0.08,3.59,1.4,3.91,3.2c0.1,0.57,0.03,1.15,0,1.84c-1.83-0.39-3.42-0.39-4.87,0.76
			c-0.85,0.68-1.68,1.91-2,3.09c0.23,0.09,0.48,0.18,0.72,0.27c1.3,0.45,1.11,0.19,1.26,1.53c0.25,2.35,1.26,4.32,2.93,5.96
			c1.06,1.04,2.26,1.89,3.61,2.49c0.67,0.3,0.96,0.74,1,1.42c0.03,0.48,0.07,0.96,0.12,1.59c-0.62-0.22-1.09-0.35-1.57-0.57
			c-1.64-0.87-3.19-1.86-4.56-3.13c-1.73-1.59-2.85-3.56-3.62-5.75c-0.1-0.28-0.2-0.57-0.35-0.83c-0.23-0.4-0.6-0.42-1-0.28
			c-0.39,0.14-0.44,0.45-0.38,0.8c0.04,0.24,0.09,0.49,0.18,0.71c1.9,5.01,5.18,8.64,10.33,10.39c0.21,0.07,0.42,0.19,0.62,0.26
			C48.36,108.57,48.41,108.58,48.64,108.73z"/>
		<path class="st1" d="M44.28,99.93c0.57-1.04,1.33-1.64,2.39-1.82c1.87-0.32,3.35,0.36,4.51,1.83c0.59,0.74,0.99,1.54,0.97,2.54
			c-0.02,0.84,0.37,1.33,0.92,1.31c0.51-0.02,0.83-0.49,0.87-1.29c0.13-2.89,2.98-5.04,5.77-4.33c0.86,0.22,1.51,0.76,2.06,1.76
			c-0.28,0.04-0.53,0.09-0.78,0.12c-1.69,0.16-3.01,0.95-3.83,2.44c-1.27,2.33-1.66,4.84-1.09,7.44c0.15,0.67,0.49,1.33,0.85,1.92
			c0.46,0.75,0.82,0.83,1.61,0.57c0.13,2.27-1.52,3.01-3.52,2.53c-0.09,0.77,0.59,2.46,1.16,2.9c0.4,0.31,0.85,0.34,1.32,0.24
			c0.28-0.06,0.56-0.17,0.95-0.28c0.12,0.55,0.26,1.01,0.29,1.48c0.01,0.15-0.24,0.41-0.42,0.47c-0.3,0.11-0.64,0.11-0.96,0.16
			c-1.44,0.2-1.82,0.58-2.26,1.95c-0.53,1.68-1.15,3.34-1.74,5.01c-0.06,0.18-0.17,0.34-0.3,0.58c-0.13-0.23-0.26-0.39-0.33-0.57
			c-0.58-1.61-1.21-3.21-1.71-4.85c-0.49-1.6-0.76-1.9-2.45-2.15c-1.36-0.2-1.41,0.05-1.06-1.64c0.03-0.12,0.1-0.24,0.18-0.41
			c0.28,0.08,0.54,0.15,0.79,0.22c0.86,0.22,1.46,0.02,1.85-0.76c0.36-0.72,0.62-1.49,0.97-2.36c-1.21,0.16-2.27,0.35-3.12-0.51
			c-0.55-0.55-0.69-1.25-0.73-2.01c0.93,0.24,1.3,0.16,1.76-0.68c0.41-0.76,0.78-1.58,0.91-2.42c0.33-2.15,0-4.25-0.89-6.23
			c-0.85-1.88-2.29-2.93-4.36-3.06C44.71,100.02,44.56,99.98,44.28,99.93z"/>
	</g>
</g>
<g id="Слой_2">
</g>
</svg>
